<?xml version="1.0" standalone="no"?>
<!DOCTYPE svg PUBLIC "-//W3C//DTD SVG 20010904//EN"
 "http://www.w3.org/TR/2001/REC-SVG-20010904/DTD/svg10.dtd">
<svg version="1.0" xmlns="http://www.w3.org/2000/svg"
 width="400.000000pt" height="400.000000pt" viewBox="0 0 400.000000 400.000000"
 preserveAspectRatio="xMidYMid meet">

<g transform="translate(0.000000,400.000000) scale(0.100000,-0.100000)"
fill="#000000" stroke="none">
<path d="M2042 3713 c-5 -10 -18 -64 -28 -120 -9 -57 -21 -103 -26 -103 -4 0
-8 6 -8 13 0 6 -5 28 -10 48 -9 34 -14 37 -50 41 -49 4 -53 -7 -5 -16 36 -7
37 -8 59 -108 4 -16 10 -28 15 -28 9 0 15 22 47 184 l17 88 51 -6 c105 -13
191 -17 171 -8 -11 5 -56 12 -100 16 -44 4 -90 9 -102 12 -14 4 -25 0 -31 -13z"/>
<path d="M2367 3643 c-15 -14 -7 -43 12 -43 26 0 36 17 21 35 -14 16 -23 19
-33 8z m23 -23 c0 -5 -4 -10 -10 -10 -5 0 -10 5 -10 10 0 6 5 10 10 10 6 0 10
-4 10 -10z"/>
<path d="M2522 3628 c-14 -18 -152 -248 -152 -254 0 -21 106 142 159 244 13
24 9 29 -7 10z"/>
<path d="M1445 3619 c-75 -11 -166 -56 -182 -89 -9 -18 -13 -103 -13 -306 0
-271 1 -282 21 -308 47 -60 171 -92 318 -83 107 7 180 29 220 66 l31 29 0 300
0 301 -36 29 c-65 54 -229 82 -359 61z m251 -25 c63 -16 134 -65 134 -92 0
-25 -54 -72 -103 -89 -40 -14 -82 -18 -187 -18 -119 0 -141 3 -185 23 -65 30
-85 49 -85 82 0 87 242 140 426 94z m-231 -217 c65 -10 95 -10 160 0 89 14
157 37 175 59 7 7 16 14 21 14 5 0 9 -101 9 -225 l0 -225 -37 24 c-45 30 -140
56 -200 56 -28 0 -43 4 -43 13 0 8 -3 9 -8 1 -4 -6 -34 -14 -67 -17 -78 -8
-125 -22 -168 -51 -30 -21 -36 -22 -39 -9 -2 9 -2 109 0 223 l3 206 57 -28
c31 -15 93 -33 137 -41z m208 -322 c118 -25 170 -70 143 -123 -53 -103 -403
-120 -516 -26 -39 33 -39 65 0 97 71 60 231 82 373 52z"/>
<path d="M1541 3494 c0 -11 3 -14 6 -6 3 7 2 16 -1 19 -3 4 -6 -2 -5 -13z"/>
<path d="M1568 3503 c6 -2 18 -2 25 0 6 3 1 5 -13 5 -14 0 -19 -2 -12 -5z"/>
<path d="M1628 3503 c7 -3 16 -2 19 1 4 3 -2 6 -13 5 -11 0 -14 -3 -6 -6z"/>
<path d="M1678 3503 c7 -3 16 -2 19 1 4 3 -2 6 -13 5 -11 0 -14 -3 -6 -6z"/>
<path d="M1728 3503 c6 -2 18 -2 25 0 6 3 1 5 -13 5 -14 0 -19 -2 -12 -5z"/>
<path d="M1788 3503 c7 -3 16 -2 19 1 4 3 -2 6 -13 5 -11 0 -14 -3 -6 -6z"/>
<path d="M1541 3434 c0 -11 3 -14 6 -6 3 7 2 16 -1 19 -3 4 -6 -2 -5 -13z"/>
<path d="M1541 3314 c0 -11 3 -14 6 -6 3 7 2 16 -1 19 -3 4 -6 -2 -5 -13z"/>
<path d="M1581 3269 c0 -19 3 -28 6 -21 4 10 8 10 19 1 21 -17 17 5 -6 31
l-20 23 1 -34z"/>
<path d="M1541 3254 c0 -11 3 -14 6 -6 3 7 2 16 -1 19 -3 4 -6 -2 -5 -13z"/>
<path d="M1542 3200 c0 -14 2 -19 5 -12 2 6 2 18 0 25 -3 6 -5 1 -5 -13z"/>
<path d="M1542 3140 c0 -14 2 -19 5 -12 2 6 2 18 0 25 -3 6 -5 1 -5 -13z"/>
<path d="M1541 3024 c0 -11 3 -14 6 -6 3 7 2 16 -1 19 -3 4 -6 -2 -5 -13z"/>
<path d="M1660 3000 c0 -17 2 -19 14 -8 14 13 12 28 -5 28 -5 0 -9 -9 -9 -20z"/>
<path d="M1541 2964 c0 -11 3 -14 6 -6 3 7 2 16 -1 19 -3 4 -6 -2 -5 -13z"/>
<path d="M1578 2953 c7 -3 16 -2 19 1 4 3 -2 6 -13 5 -11 0 -14 -3 -6 -6z"/>
<path d="M1628 2953 c7 -3 16 -2 19 1 4 3 -2 6 -13 5 -11 0 -14 -3 -6 -6z"/>
<path d="M1678 2953 c6 -2 18 -2 25 0 6 3 1 5 -13 5 -14 0 -19 -2 -12 -5z"/>
<path d="M1738 2953 c7 -3 16 -2 19 1 4 3 -2 6 -13 5 -11 0 -14 -3 -6 -6z"/>
<path d="M1788 2953 c7 -3 16 -2 19 1 4 3 -2 6 -13 5 -11 0 -14 -3 -6 -6z"/>
<path d="M2100 3585 c0 -5 9 -25 21 -44 l20 -34 -37 -38 c-21 -22 -33 -39 -28
-39 6 0 23 14 39 30 16 17 31 30 34 30 3 0 16 -18 29 -40 12 -22 27 -40 33
-40 9 0 -21 59 -42 84 -5 5 6 26 22 48 36 44 28 50 -14 11 -20 -19 -31 -24
-34 -16 -7 20 -42 59 -43 48z"/>
<path d="M2714 3496 c-15 -23 -14 -27 7 -55 17 -23 20 -34 12 -42 -16 -16 -46
-7 -59 19 -15 29 -26 17 -12 -14 13 -29 52 -41 73 -24 19 16 19 54 0 70 -19
16 -19 34 -1 49 16 14 46 4 46 -15 0 -8 5 -14 10 -14 14 0 13 23 -2 38 -20 20
-56 14 -74 -12z"/>
<path d="M2850 3500 c0 -5 5 -10 10 -10 6 0 10 5 10 10 0 6 -4 10 -10 10 -5 0
-10 -4 -10 -10z"/>
<path d="M2797 3405 c-39 -80 -33 -92 8 -15 39 71 38 70 27 70 -4 0 -20 -25
-35 -55z"/>
<path d="M2506 3431 c-10 -16 5 -42 23 -39 21 4 21 42 -1 46 -9 2 -19 -1 -22
-7z m29 -11 c3 -5 -1 -10 -10 -10 -9 0 -13 5 -10 10 3 6 8 10 10 10 2 0 7 -4
10 -10z"/>
<path d="M2857 3376 c-42 -80 -31 -89 13 -11 32 56 56 69 79 41 10 -11 8 -25
-9 -64 -12 -28 -20 -59 -18 -69 3 -19 48 -32 48 -14 0 6 -6 10 -12 9 -19 -4
-21 37 -4 71 29 55 18 82 -35 96 -25 6 -29 2 -62 -59z"/>
<path d="M1000 3390 c0 -13 5 -20 13 -17 6 2 12 10 12 17 0 7 -6 15 -12 18 -8
2 -13 -5 -13 -18z"/>
<path d="M2191 3338 c-1 -19 -21 -26 -21 -8 0 6 -4 10 -9 10 -5 0 -7 -9 -4
-20 3 -11 12 -20 20 -20 8 0 13 -7 11 -17 -2 -11 -11 -17 -21 -15 -9 2 -17 -2
-17 -8 0 -5 9 -10 20 -10 28 0 43 33 31 72 -5 18 -10 25 -10 16z"/>
<path d="M2272 3315 c-7 -15 -8 -25 -2 -25 6 0 10 -121 10 -330 0 -363 3 -348
-61 -315 -86 45 -135 184 -174 500 l-14 110 4 -105 c10 -235 71 -436 150 -498
14 -11 25 -21 25 -23 0 -2 -104 -3 -231 -1 -153 2 -236 -1 -242 -7 -8 -8 72
-11 266 -11 l277 0 0 -195 c0 -123 4 -195 10 -195 6 0 10 72 10 195 l0 195
264 0 c145 0 266 -4 268 -9 2 -5 13 -5 27 1 17 6 21 12 14 19 -11 11 -460 13
-488 2 -23 -8 -18 6 15 39 37 37 73 104 94 179 38 130 72 420 48 405 -7 -4
-12 -33 -12 -69 0 -79 -24 -246 -45 -316 -38 -126 -113 -231 -165 -231 -20 0
-20 7 -20 330 0 209 4 330 10 330 6 0 5 10 -2 25 -6 14 -14 25 -18 25 -4 0
-12 -11 -18 -25z"/>
<path d="M968 3313 c23 -2 61 -2 85 0 23 2 4 4 -43 4 -47 0 -66 -2 -42 -4z"/>
<path d="M997 3254 c-13 -13 -7 -24 14 -24 11 0 19 5 17 12 -5 14 -22 21 -31
12z"/>
<path d="M753 3165 c-68 -96 -175 -245 -250 -347 -44 -59 -63 -95 -61 -110 13
-94 394 -141 620 -78 37 11 98 54 98 70 0 9 -324 496 -346 519 -10 11 -20 2
-61 -54z m50 23 c-3 -17 -2 -19 5 -9 7 10 46 -40 155 -203 79 -119 144 -216
143 -216 0 0 -30 9 -66 21 -36 11 -102 23 -147 26 -67 5 -83 9 -83 22 -1 15
-1 15 -10 0 -7 -12 -28 -17 -90 -18 -44 -1 -112 -10 -150 -20 -40 -10 -66 -13
-63 -7 12 21 306 426 308 426 2 0 1 -10 -2 -22z m212 -413 c68 -19 125 -50
125 -69 0 -84 -364 -121 -582 -60 -62 18 -111 54 -102 77 8 21 71 49 144 63
87 18 334 11 415 -11z"/>
<path d="M801 3134 c0 -11 3 -14 6 -6 3 7 2 16 -1 19 -3 4 -6 -2 -5 -13z"/>
<path d="M801 3084 c0 -11 3 -14 6 -6 3 7 2 16 -1 19 -3 4 -6 -2 -5 -13z"/>
<path d="M802 3030 c0 -14 2 -19 5 -12 2 6 2 18 0 25 -3 6 -5 1 -5 -13z"/>
<path d="M802 2980 c0 -14 2 -19 5 -12 2 6 2 18 0 25 -3 6 -5 1 -5 -13z"/>
<path d="M741 2924 c0 -30 2 -34 8 -19 l8 20 5 -20 6 -20 1 20 c0 11 -6 29
-14 39 -14 19 -15 17 -14 -20z"/>
<path d="M801 2924 c0 -11 3 -14 6 -6 3 7 2 16 -1 19 -3 4 -6 -2 -5 -13z"/>
<path d="M801 2874 c0 -11 3 -14 6 -6 3 7 2 16 -1 19 -3 4 -6 -2 -5 -13z"/>
<path d="M801 2774 c0 -11 3 -14 6 -6 3 7 2 16 -1 19 -3 4 -6 -2 -5 -13z"/>
<path d="M920 2740 c0 -11 5 -20 10 -20 6 0 10 6 10 14 0 8 6 17 13 19 6 3 2
6 -10 6 -17 1 -23 -5 -23 -19z"/>
<path d="M801 2724 c0 -11 3 -14 6 -6 3 7 2 16 -1 19 -3 4 -6 -2 -5 -13z"/>
<path d="M838 2703 c7 -3 16 -2 19 1 4 3 -2 6 -13 5 -11 0 -14 -3 -6 -6z"/>
<path d="M888 2703 c7 -3 16 -2 19 1 4 3 -2 6 -13 5 -11 0 -14 -3 -6 -6z"/>
<path d="M938 2703 c6 -2 18 -2 25 0 6 3 1 5 -13 5 -14 0 -19 -2 -12 -5z"/>
<path d="M988 2703 c6 -2 18 -2 25 0 6 3 1 5 -13 5 -14 0 -19 -2 -12 -5z"/>
<path d="M1048 2703 c7 -3 16 -2 19 1 4 3 -2 6 -13 5 -11 0 -14 -3 -6 -6z"/>
<path d="M1098 2703 c7 -3 16 -2 19 1 4 3 -2 6 -13 5 -11 0 -14 -3 -6 -6z"/>
<path d="M2970 3190 c-77 -36 -119 -87 -145 -174 -11 -39 -13 -39 -61 -40
l-49 -1 -9 -58 c-5 -31 -6 -60 -2 -64 10 -11 755 -107 763 -99 8 8 23 108 18
117 -3 4 -28 10 -55 14 -50 7 -50 7 -50 44 0 99 -59 201 -142 246 -44 24 -67
30 -138 32 -70 3 -93 0 -130 -17z m248 -20 c86 -37 141 -126 144 -233 0 -42 4
-50 25 -58 13 -5 38 -9 54 -9 27 0 29 -3 29 -37 0 -37 -19 -87 -20 -53 0 13
-1 13 -10 0 -8 -12 -10 -10 -11 10 l-1 25 -8 -25 -8 -25 -2 25 c-1 25 -1 25
-10 3 -5 -13 -12 -23 -16 -23 -3 0 -4 10 -1 23 6 21 6 21 -8 3 -15 -19 -15
-19 -16 5 l-2 24 -5 -25 -5 -25 -8 25 c-7 24 -7 24 -8 3 -1 -22 -21 -34 -21
-12 0 5 -4 7 -10 4 -5 -3 -10 2 -11 12 0 16 -1 16 -9 -2 -8 -19 -9 -18 -11 5
-2 23 -2 23 -6 3 -6 -28 -43 -27 -44 2 0 20 0 20 -9 0 -8 -19 -9 -18 -11 5 -2
23 -2 23 -6 3 -6 -28 -43 -27 -44 2 0 20 0 20 -9 0 -8 -17 -9 -16 -11 10 l-2
30 -4 -27 c-2 -16 -9 -28 -14 -28 -6 0 -8 10 -4 23 5 20 5 20 -9 -3 l-15 -25
-2 25 c-1 21 -2 22 -7 5 l-5 -20 -8 20 c-6 17 -8 17 -8 3 -1 -11 -9 -18 -21
-18 -12 0 -20 7 -21 18 0 14 -2 14 -9 -3 -8 -18 -9 -18 -10 5 -2 18 -4 20 -7
8 -5 -20 -43 -25 -43 -5 0 8 -4 7 -10 -3 -8 -12 -10 -10 -11 10 -1 17 -3 19
-6 8 -5 -20 -43 -25 -43 -5 0 8 -4 7 -10 -3 -8 -12 -10 -10 -11 10 -1 21 -2
22 -7 5 l-5 -20 -8 20 c-6 17 -8 17 -8 3 -1 -20 -21 -25 -21 -5 0 8 -4 7 -10
-3 -8 -12 -10 -8 -11 15 -2 28 -2 28 -6 4 -3 -22 -8 -25 -33 -21 -29 4 -30 6
-24 46 10 69 9 69 59 61 33 -4 46 -3 49 7 33 114 98 195 172 216 59 17 161 8
222 -18z"/>
<path d="M3013 3091 c-47 -30 -97 -136 -69 -147 22 -9 311 -41 320 -36 14 8 0
102 -21 130 -36 49 -70 66 -136 70 -49 2 -69 -1 -94 -17z m153 -7 c47 -23 81
-66 89 -114 4 -23 5 -44 2 -46 -3 -3 -73 3 -156 12 -169 20 -168 19 -128 89
38 68 120 93 193 59z"/>
<path d="M2892 2870 c0 -14 2 -19 5 -12 2 6 2 18 0 25 -3 6 -5 1 -5 -13z"/>
<path d="M2961 2854 c0 -11 3 -14 6 -6 3 7 2 16 -1 19 -3 4 -6 -2 -5 -13z"/>
<path d="M3241 2834 c0 -11 3 -14 6 -6 3 7 2 16 -1 19 -3 4 -6 -2 -5 -13z"/>
<path d="M1006 3015 c-3 -8 -3 -22 0 -30 7 -17 34 -21 34 -5 0 6 -5 10 -11 10
-6 0 -9 9 -6 20 6 23 -8 27 -17 5z"/>
<path d="M1311 2691 c-16 -29 -13 -87 5 -105 17 -18 24 -19 48 -10 26 10 18
22 -10 16 -16 -3 -30 1 -35 9 -12 18 -11 60 1 79 8 13 13 13 31 2 18 -12 20
-11 17 5 -5 26 -44 29 -57 4z"/>
<path d="M1407 2692 c-21 -23 -22 -86 -1 -106 34 -34 67 -8 67 54 0 63 -33 89
-66 52z m51 -45 c4 -42 -11 -69 -33 -61 -19 8 -28 59 -15 84 18 34 44 21 48
-23z"/>
<path d="M1500 2691 c-10 -20 -4 -51 10 -51 5 0 16 -7 25 -16 21 -22 2 -48
-25 -34 -27 14 -34 12 -20 -5 24 -29 70 -11 70 27 0 10 -11 24 -25 30 -23 10
-33 37 -19 51 4 3 15 2 25 -4 11 -6 19 -6 19 0 0 9 -23 21 -40 21 -5 0 -14 -9
-20 -19z"/>
<path d="M3117 2694 c-4 -4 -7 -19 -6 -33 1 -25 1 -25 7 -3 9 30 26 33 30 5 2
-14 10 -23 20 -23 11 0 13 3 6 8 -7 4 -13 16 -15 27 -4 20 -29 31 -42 19z"/>
<path d="M3020 2630 c-23 -23 -27 -84 -7 -97 17 -11 96 -12 103 -1 3 5 -2 8
-12 6 -16 -2 -19 5 -22 44 -4 60 -30 80 -62 48z m48 -35 c2 -17 -4 -39 -11
-50 -13 -16 -17 -17 -31 -6 -19 16 -21 44 -5 72 15 29 43 20 47 -16z"/>
<path d="M3425 2563 c-214 -100 -581 -270 -627 -291 -21 -9 -38 -20 -38 -24 0
-5 215 -7 478 -6 452 3 458 3 120 5 l-358 3 0 33 c0 18 -5 38 -11 44 -9 9 4
19 52 41 305 141 546 255 554 263 19 19 -14 6 -170 -68z m-445 -253 c6 -12 8
-30 5 -40 -6 -18 -15 -20 -98 -19 l-92 1 80 38 c44 21 83 39 87 39 4 1 12 -8
18 -19z"/>
<path d="M372 2548 c-5 -7 -13 -35 -16 -63 -4 -27 -9 -57 -12 -66 -3 -9 2 -23
9 -31 17 -16 901 -167 913 -156 4 4 12 43 19 85 10 60 10 81 1 90 -10 11 -263
56 -739 133 -149 24 -161 24 -175 8z m23 -20 c-5 -21 -5 -21 9 2 l15 25 2 -25
c1 -17 3 -20 6 -7 5 19 43 24 43 5 0 -9 4 -8 10 2 8 12 10 10 11 -10 0 -23 1
-23 9 -5 8 19 9 18 11 -5 2 -24 2 -24 6 -2 5 26 16 28 37 6 12 -12 16 -12 17
-2 1 7 5 2 9 -12 7 -23 8 -23 9 -3 1 16 6 20 21 16 11 -3 20 -10 20 -17 0 -6
5 -4 10 4 8 12 10 10 11 -10 1 -17 3 -19 6 -7 2 9 14 17 25 17 15 0 19 -5 14
-17 -5 -15 -4 -15 9 1 15 19 15 19 16 -5 0 -22 1 -23 9 -4 8 19 9 18 11 -5 2
-24 2 -24 6 -2 2 12 9 22 14 22 6 0 8 -10 4 -22 -5 -21 -5 -21 9 2 l15 25 1
-25 c1 -23 2 -23 10 -5 8 19 9 18 11 -5 2 -24 2 -24 6 -2 5 26 16 28 37 6 12
-12 16 -12 17 -2 1 7 5 2 9 -12 7 -23 8 -23 9 -3 1 16 6 20 21 16 11 -3 20
-13 21 -22 0 -12 2 -12 10 4 7 16 9 14 6 -12 -2 -18 0 -30 5 -27 4 3 8 17 9
32 l1 27 8 -25 c5 -17 8 -19 9 -7 1 9 6 17 12 17 6 0 8 -8 5 -17 -5 -15 -4
-15 9 1 15 19 15 19 16 -5 1 -20 2 -21 7 -4 l5 20 8 -20 c6 -16 8 -17 8 -3 1
25 41 19 42 -7 1 -20 1 -20 7 0 l5 20 8 -20 c6 -16 8 -17 8 -3 1 21 41 20 41
-2 0 -13 1 -13 10 0 8 13 10 12 11 -5 1 -15 2 -16 6 -4 3 11 11 15 24 12 13
-4 18 -11 15 -22 -4 -11 -2 -10 9 3 15 20 15 20 16 0 0 -19 1 -19 8 0 13 34
23 -1 16 -57 -10 -78 -14 -87 -40 -87 -21 0 -769 120 -849 136 -28 6 -28 6
-21 63 9 77 15 101 27 101 5 0 7 -10 3 -22z"/>
<path d="M602 2480 c0 -14 2 -19 5 -12 2 6 2 18 0 25 -3 6 -5 1 -5 -13z"/>
<path d="M832 2440 c0 -14 2 -19 5 -12 2 6 2 18 0 25 -3 6 -5 1 -5 -13z"/>
<path d="M1061 2404 c0 -11 3 -14 6 -6 3 7 2 16 -1 19 -3 4 -6 -2 -5 -13z"/>
<path d="M2814 2531 c11 -12 14 -21 7 -26 -6 -3 -11 -11 -11 -17 0 -7 6 -6 15
2 12 10 18 10 30 0 9 -8 15 -9 15 -2 0 6 -5 14 -10 17 -8 5 -7 11 1 21 6 8 9
18 5 21 -4 4 -11 1 -16 -7 -7 -12 -12 -12 -22 -2 -20 20 -33 14 -14 -7z"/>
<path d="M2449 2515 c-3 -5 -6 -26 -8 -45 -2 -19 -8 -38 -15 -42 -7 -5 -7 -8
0 -8 6 0 15 -24 20 -52 l9 -53 45 0 c57 -1 78 -12 55 -29 -11 -8 -16 -23 -13
-41 2 -24 8 -31 30 -33 33 -4 53 27 44 69 -3 16 -1 29 4 29 6 0 10 5 10 11 0
5 -4 7 -10 4 -6 -4 -10 9 -10 32 0 50 -19 78 -48 69 -21 -7 -24 -13 -36 -67
-7 -31 -32 -44 -52 -28 -17 14 -18 86 -1 92 9 4 9 8 0 14 -6 4 -13 26 -15 48
-2 22 -6 36 -9 30z m146 -135 c11 -52 -36 -86 -49 -35 -7 29 8 65 29 65 7 0
16 -14 20 -30z m5 -114 c0 -31 -22 -50 -38 -34 -16 16 -15 23 4 42 22 23 34
20 34 -8z"/>
<path d="M1519 2476 c-23 -11 -24 -17 -27 -124 -2 -72 1 -112 8 -112 5 0 10
22 10 50 0 48 1 50 24 44 19 -4 32 1 50 20 57 56 3 156 -65 122z m67 -42 c18
-43 -1 -79 -41 -79 -28 0 -30 3 -33 44 -4 59 2 73 35 69 19 -2 30 -12 39 -34z"/>
<path d="M1974 2422 c-38 -25 -46 -108 -13 -138 20 -18 22 -18 51 -1 28 16 32
16 42 2 14 -19 46 -10 46 12 0 12 -3 13 -14 4 -20 -16 -36 14 -36 66 0 22 -5
44 -12 51 -13 13 -47 16 -64 4z m43 -10 c36 -23 15 -122 -27 -122 -41 0 -50
72 -13 113 18 19 23 20 40 9z"/>
<path d="M1798 2391 c-14 -63 -11 -71 26 -71 30 0 35 -4 39 -27 2 -16 4 8 4
52 0 44 -2 61 -4 38 -4 -38 -7 -43 -28 -43 -21 0 -24 5 -27 43 l-3 42 -7 -34z"/>
<path d="M1660 2350 c0 -5 16 -10 36 -10 21 0 33 4 29 10 -3 6 -19 10 -36 10
-16 0 -29 -4 -29 -10z"/>
<path d="M3152 2349 c2 -6 8 -10 13 -10 5 0 11 4 13 10 2 6 -4 11 -13 11 -9 0
-15 -5 -13 -11z"/>
<path d="M3054 2335 c3 -8 9 -22 12 -30 5 -11 2 -14 -12 -8 -11 4 -15 3 -10
-5 10 -16 78 -9 89 10 6 8 7 23 4 32 -9 23 -38 20 -45 -6 l-5 -22 -8 22 c-5
12 -13 22 -20 22 -6 0 -8 -7 -5 -15z m68 -27 c-15 -15 -26 -4 -18 18 5 13 9
15 18 6 9 -9 9 -15 0 -24z"/>
<path d="M1664 2318 c-3 -4 11 -8 30 -8 20 0 36 2 36 4 0 8 -61 12 -66 4z"/>
<path d="M329 2227 c-29 -19 -34 -29 -34 -62 0 -36 3 -40 27 -43 19 -2 28 2
33 16 8 27 31 34 47 15 11 -14 9 -19 -16 -37 -16 -12 -42 -32 -58 -46 -47 -42
-43 -110 8 -110 25 0 28 4 38 51 4 19 17 31 45 42 56 23 71 42 71 93 0 48 -20
77 -66 94 -38 15 -58 12 -95 -13z m104 -8 c45 -20 62 -92 30 -121 -10 -9 -35
-23 -55 -31 -30 -13 -39 -23 -48 -57 -13 -48 -43 -53 -48 -7 -3 28 23 60 82
100 28 19 34 45 14 65 -19 19 -35 14 -63 -15 -21 -24 -27 -26 -35 -13 -15 24
-12 39 15 65 26 27 68 32 108 14z"/>
<path d="M610 2000 l0 -150 35 0 35 0 0 75 c0 79 9 91 36 50 21 -32 35 -32 65
3 l24 27 3 -77 3 -78 39 0 40 0 0 150 0 150 -39 0 c-36 0 -42 -4 -71 -50 -18
-27 -34 -50 -35 -50 -2 0 -16 22 -32 50 -26 46 -31 50 -65 50 l-38 0 0 -150z"/>
<path d="M1015 2138 c-9 -24 -95 -282 -95 -285 0 -2 16 -3 34 -3 34 0 36 2 52
55 17 54 18 55 55 55 40 0 42 -3 55 -72 6 -35 9 -38 40 -38 19 0 34 4 34 8 0
4 -11 48 -25 97 -15 50 -33 114 -41 143 l-15 52 -45 0 c-26 0 -47 -5 -49 -12z
m65 -99 c0 -17 -5 -29 -13 -29 -22 0 -26 10 -15 41 12 35 28 29 28 -12z"/>
<path d="M1180 2110 l0 -40 40 0 40 0 0 -110 0 -110 40 0 40 0 0 109 0 110 43
3 c41 3 42 4 45 41 l3 37 -125 0 -126 0 0 -40z"/>
<path d="M1470 2000 l0 -150 35 0 35 0 0 50 0 50 35 0 35 0 0 -50 0 -50 34 0
c42 0 42 -3 38 166 l-3 134 -35 0 -34 0 0 -50 0 -50 -35 0 -35 0 0 50 0 50
-35 0 -35 0 0 -150z"/>
<path d="M1740 2000 l0 -150 85 0 86 0 -3 28 c-3 24 -8 28 -48 32 -40 4 -45 8
-45 30 0 22 5 25 41 28 31 2 43 8 47 21 7 29 -5 39 -48 43 -35 3 -40 6 -40 28
0 22 5 25 43 28 39 3 42 5 42 33 l0 29 -80 0 -80 0 0 -150z"/>
<path d="M1959 2035 c-1 -63 -1 -126 -1 -140 0 -43 1 -45 37 -45 l35 0 0 77 0
77 28 -27 c15 -15 32 -27 37 -27 5 0 22 12 37 27 l28 27 0 -77 0 -77 38 0 37
0 3 150 4 150 -41 0 c-39 0 -43 -3 -73 -51 l-31 -51 -18 23 c-10 13 -24 36
-30 52 -10 23 -17 27 -50 27 l-39 0 -1 -115z"/>
<path d="M2367 2143 c-2 -4 -23 -64 -45 -133 -22 -69 -44 -133 -47 -142 -6
-15 -1 -18 28 -18 35 0 37 2 53 54 16 50 20 54 51 58 39 5 41 2 57 -61 11 -41
15 -46 44 -49 18 -2 32 0 32 5 0 4 -18 71 -39 148 l-38 140 -46 3 c-25 2 -47
-1 -50 -5z m65 -103 c2 -17 -2 -26 -14 -28 -19 -4 -24 21 -12 53 8 20 21 8 26
-25z"/>
<path d="M2530 2110 l0 -40 40 0 40 0 1 -87 c1 -49 1 -98 2 -110 0 -20 5 -23
38 -23 l38 0 3 112 3 112 40 0 c39 1 40 2 43 39 l3 37 -125 0 -126 0 0 -40z"/>
<path d="M2828 2073 c-1 -43 -2 -109 -3 -148 l0 -70 38 -3 37 -3 0 150 0 151
-35 0 -35 0 -2 -77z"/>
<path d="M3014 2135 c-33 -22 -54 -77 -54 -140 0 -94 40 -145 116 -145 28 0
46 6 59 20 17 19 17 21 0 40 -14 15 -26 19 -46 15 -39 -9 -64 30 -56 86 7 51
24 72 53 65 18 -5 28 0 41 20 16 25 16 27 -2 40 -25 18 -85 18 -111 -1z"/>
<path d="M3223 2128 c-48 -54 -36 -114 33 -154 46 -27 56 -50 27 -61 -11 -4
-23 3 -37 20 -26 32 -66 37 -66 7 0 -56 41 -90 108 -90 49 0 80 23 88 65 6 36
-15 85 -37 85 -6 0 -24 9 -40 21 -31 22 -38 53 -14 63 19 7 55 -14 55 -31 0
-7 11 -13 25 -13 22 0 25 4 25 34 0 48 -37 76 -100 76 -36 0 -51 -5 -67 -22z"/>
<path d="M3540 2128 c0 -9 -4 -18 -9 -20 -5 -1 -3 -11 4 -22 13 -17 15 -17 30
-2 15 14 14 17 -4 38 -17 17 -21 19 -21 6z"/>
<path d="M3395 1773 c-170 -152 -311 -283 -313 -290 -2 -7 7 -15 20 -18 53
-12 472 -85 489 -85 23 0 18 -22 79 347 54 326 54 323 43 323 -5 -1 -147 -125
-318 -277z m255 -69 c-28 -169 -52 -309 -53 -310 -2 -2 -419 70 -476 82 l-25
5 30 28 c23 22 32 26 43 17 11 -9 13 -8 9 4 -2 8 4 23 13 34 16 17 21 17 35 5
16 -13 16 -12 7 6 -14 26 7 51 26 32 9 -9 10 -7 5 8 l-7 20 23 -20 23 -20 -14
22 c-12 20 -11 25 8 42 16 15 23 17 32 8 9 -9 10 -7 5 8 -7 18 -6 18 9 6 19
-15 24 -2 6 16 -8 8 -5 13 10 18 12 3 21 11 21 17 0 6 7 5 17 -3 15 -12 16
-12 10 5 -5 12 -1 25 10 36 17 17 19 17 43 -4 l25 -21 -19 23 c-11 12 -16 25
-12 29 4 4 12 1 17 -7 9 -12 10 -11 5 4 -7 21 29 63 39 46 3 -6 11 -10 17 -10
6 0 6 6 -2 15 -11 13 -10 19 7 35 17 15 23 16 34 5 12 -11 16 -11 26 0 8 9 9
16 3 20 -6 3 -10 1 -10 -5 0 -6 -4 -8 -10 -5 -6 4 -2 15 10 27 19 21 20 21 42
2 l23 -19 -17 21 c-10 11 -18 23 -18 26 0 14 34 17 49 6 14 -12 14 -11 2 5
-12 15 -11 20 4 37 10 11 20 19 22 17 2 -2 -20 -143 -47 -313z"/>
<path d="M3640 1950 c0 -5 5 -10 11 -10 5 0 7 5 4 10 -3 6 -8 10 -11 10 -2 0
-4 -4 -4 -10z"/>
<path d="M3542 1850 c7 -11 17 -20 22 -20 5 0 1 9 -9 20 -10 11 -20 20 -22 20
-2 0 2 -9 9 -20z"/>
<path d="M3413 1670 c-84 -73 -151 -136 -148 -138 6 -6 212 -42 241 -42 20 0
23 11 44 140 12 76 20 147 18 156 -2 13 -43 -18 -155 -116z m123 -32 c-11 -73
-20 -134 -22 -136 -3 -5 -185 27 -206 36 -13 6 10 31 110 119 70 61 130 112
133 112 3 1 -4 -59 -15 -131z"/>
<path d="M3360 1706 c0 -2 8 -10 18 -17 15 -13 16 -12 3 4 -13 16 -21 21 -21
13z"/>
<path d="M3290 1640 c0 -5 5 -10 11 -10 5 0 7 5 4 10 -3 6 -8 10 -11 10 -2 0
-4 -4 -4 -10z"/>
<path d="M3196 1535 c4 -8 11 -15 16 -15 6 0 5 6 -2 15 -7 8 -14 15 -16 15 -2
0 -1 -7 2 -15z"/>
<path d="M294 1906 c-3 -8 -4 -25 -2 -38 2 -18 9 -23 32 -23 36 0 56 27 40 53
-14 22 -62 28 -70 8z m56 -11 c10 -12 10 -18 0 -30 -25 -30 -61 -7 -46 30 3 8
12 15 19 15 8 0 20 -7 27 -15z"/>
<path d="M1657 1754 c-14 -14 -7 -25 13 -19 26 8 25 -2 -2 -24 -12 -10 -18
-23 -14 -29 9 -15 46 -16 46 -2 0 6 -8 10 -17 10 -15 0 -15 1 1 13 10 7 17 22
14 33 -3 19 -28 30 -41 18z"/>
<path d="M2711 1738 c-1 -19 -6 -28 -18 -28 -15 0 -15 -1 1 -13 15 -11 16 -17
7 -35 -28 -53 -66 -67 -80 -29 -11 30 2 63 25 59 16 -3 16 -2 4 13 -13 16 -15
15 -32 -5 -23 -29 -23 -65 1 -89 23 -23 55 -18 76 12 8 12 15 16 15 10 0 -19
31 -44 43 -36 10 7 67 12 67 6 0 -1 -11 -14 -25 -29 -28 -30 -29 -51 -4 -67
30 -19 49 -1 49 47 0 25 5 48 10 51 6 4 4 12 -5 21 -8 9 -15 31 -15 50 0 33
-2 35 -27 32 -24 -3 -30 -10 -39 -47 -13 -57 -31 -63 -40 -16 -5 27 -3 40 7
46 10 7 11 11 3 17 -7 4 -14 18 -17 32 -4 25 -4 25 -6 -2z m109 -77 c0 -29
-21 -57 -33 -44 -11 11 -8 58 5 71 16 16 28 5 28 -27z m10 -106 c0 -24 -24
-44 -37 -31 -9 8 14 56 27 56 5 0 10 -11 10 -25z"/>
<path d="M473 1733 c-81 -28 -142 -129 -130 -216 8 -59 55 -127 106 -154 l44
-23 1 -63 c2 -98 59 -171 153 -196 126 -34 253 69 253 205 0 49 1 52 29 57 16
4 46 22 65 42 72 71 85 157 38 246 -22 43 -38 59 -82 82 -47 25 -63 28 -108
24 -31 -3 -71 -17 -98 -32 l-45 -26 -30 25 c-53 45 -122 56 -196 29z m150 -17
c18 -7 40 -22 50 -33 17 -19 17 -22 -3 -64 -11 -24 -20 -65 -20 -91 0 -46 -1
-48 -45 -67 -28 -12 -54 -34 -72 -60 -23 -33 -32 -40 -52 -35 -39 9 -71 35
-98 81 -22 38 -25 53 -21 108 3 53 9 71 34 101 16 20 45 45 64 55 41 22 117
25 163 5z m317 -11 c137 -71 138 -273 3 -338 -45 -21 -46 -22 -57 -3 -25 43
-67 83 -103 100 -38 17 -38 17 -35 67 3 30 -2 65 -12 90 -13 32 -14 44 -5 56
41 48 142 62 209 28z m-200 -155 c0 -51 -11 -70 -40 -70 -23 0 -30 5 -35 29
-7 32 1 72 23 116 l15 30 18 -40 c10 -22 19 -51 19 -65z m-66 -109 c14 -26 14
-30 -4 -46 -34 -30 -150 -60 -150 -38 0 19 55 73 92 92 24 11 44 21 45 21 1 0
9 -13 17 -29z m46 22 c0 -5 -5 -15 -10 -23 -9 -13 -11 -13 -20 0 -15 22 -12
30 10 30 11 0 20 -3 20 -7z m69 -18 c34 -17 81 -71 81 -92 0 -21 -62 -9 -117
23 -49 28 -47 25 -31 59 13 29 27 31 67 10z m-10 -101 c18 -8 48 -14 66 -14
46 0 55 -28 34 -103 -22 -80 -99 -137 -186 -137 -113 0 -199 104 -185 223 3
25 7 27 45 27 43 0 119 29 131 49 5 8 16 5 34 -10 15 -11 42 -27 61 -35z"/>
<path d="M506 1594 c-19 -19 -21 -50 -3 -61 18 -11 76 -13 82 -2 4 5 -1 9 -9
9 -10 0 -16 9 -16 23 0 22 -16 47 -31 47 -4 0 -15 -7 -23 -16z m32 -26 c-5
-32 -28 -35 -28 -4 0 17 5 26 16 26 10 0 14 -7 12 -22z"/>
<path d="M840 1563 c0 -49 12 -66 41 -61 16 2 25 11 27 27 4 25 -15 44 -35 36
-8 -2 -13 4 -13 15 0 11 -4 20 -10 20 -5 0 -10 -17 -10 -37z m55 -34 c0 -7 -8
-15 -17 -17 -18 -3 -25 18 -11 32 10 10 28 1 28 -15z"/>
<path d="M672 1268 c-29 -29 -1 -84 36 -71 20 7 14 25 -7 18 -12 -3 -21 0 -25
10 -8 21 2 43 22 48 14 4 14 5 2 6 -9 0 -21 -4 -28 -11z"/>
<path d="M1299 1695 c-46 -25 -65 -118 -33 -163 21 -30 67 -29 91 1 l17 23 21
-24 c16 -18 27 -23 43 -18 12 4 22 14 22 23 0 14 -2 14 -19 -1 -27 -24 -37 -5
-46 82 -6 65 -10 74 -32 83 -31 11 -32 11 -64 -6z m69 -17 c17 -17 14 -57 -7
-105 -36 -77 -91 -64 -91 23 0 70 60 120 98 82z"/>
<path d="M1572 1661 l-30 -41 -30 37 c-17 21 -33 35 -36 32 -3 -3 9 -22 26
-43 l32 -39 -28 -48 c-33 -59 -21 -66 14 -9 l25 41 37 -43 c20 -24 39 -40 42
-37 3 3 -10 24 -29 46 -19 23 -35 45 -35 50 0 4 12 26 26 46 35 52 23 59 -14
8z"/>
<path d="M1911 1674 c-32 -40 -30 -126 4 -159 13 -14 31 -25 39 -25 21 0 66
22 66 32 0 11 -17 10 -25 -2 -11 -17 -51 -11 -70 10 -22 25 -26 110 -6 134 16
19 47 21 55 4 3 -7 5 -4 3 7 -4 31 -41 31 -66 -1z"/>
<path d="M2220 1680 c-58 -58 -28 -190 45 -190 37 0 58 34 63 101 4 52 2 63
-19 85 -27 29 -62 31 -89 4z m91 -38 c13 -35 2 -96 -21 -117 -30 -27 -67 -13
-79 31 -13 49 -4 90 26 114 30 24 59 13 74 -28z"/>
<path d="M1771 1638 c-1 -10 -8 -18 -16 -18 -8 0 -15 -4 -15 -10 0 -5 6 -10
14 -10 8 0 17 -8 19 -17 4 -17 5 -17 6 0 0 9 9 17 18 17 15 0 15 1 1 13 -9 6
-18 19 -21 27 -4 12 -6 11 -6 -2z"/>
<path d="M2065 1610 c3 -5 19 -10 36 -10 16 0 29 5 29 10 0 6 -16 10 -36 10
-21 0 -33 -4 -29 -10z"/>
<path d="M2060 1580 c0 -5 16 -10 35 -10 19 0 35 5 35 10 0 6 -16 10 -35 10
-19 0 -35 -4 -35 -10z"/>
<path d="M1650 1434 c-6 -14 -10 -43 -10 -65 0 -31 -4 -39 -19 -39 -31 0 -44
-26 -38 -76 4 -37 -7 -80 -63 -249 -37 -112 -75 -211 -84 -220 -23 -23 -30
-62 -17 -92 9 -20 8 -36 -6 -79 -9 -29 -13 -57 -9 -61 11 -11 46 38 46 65 0
12 8 30 19 41 10 10 56 132 102 270 112 337 104 337 193 -14 46 -186 73 -275
91 -301 14 -20 25 -43 25 -50 0 -7 4 -15 9 -18 5 -3 8 25 8 62 0 51 -16 128
-69 327 -39 143 -72 263 -75 268 -2 4 0 14 7 22 6 7 10 31 8 52 -2 31 -7 39
-25 41 -21 3 -23 9 -23 61 0 31 -5 62 -12 69 -20 20 -48 14 -58 -14z m48 -1
c5 -10 9 -36 8 -58 -2 -36 -5 -40 -30 -43 l-28 -4 7 54 c4 29 9 56 12 61 7 12
22 8 31 -10z m60 -146 c9 -47 -35 -97 -86 -97 -46 0 -102 86 -75 114 4 4 41 5
82 4 64 -3 76 -6 79 -21z m-128 -92 c10 -12 -3 -60 -71 -261 -77 -228 -97
-271 -118 -248 -10 10 155 524 168 524 5 0 14 -7 21 -15z m182 -249 c89 -330
85 -308 57 -304 -21 3 -28 23 -91 268 -37 146 -66 271 -63 278 14 38 36 -16
97 -242z m-370 -308 c-8 -8 -9 -4 -5 13 4 13 8 18 11 10 2 -7 -1 -18 -6 -23z
m-2 -32 c0 -3 -4 -8 -10 -11 -5 -3 -10 -1 -10 4 0 6 5 11 10 11 6 0 10 -2 10
-4z"/>
<path d="M1656 1231 c-7 -11 18 -33 27 -24 4 3 7 12 7 20 0 15 -26 18 -34 4z"/>
<path d="M2482 1338 c-2 -96 0 -110 18 -128 37 -37 87 -19 104 37 16 51 -46
97 -90 68 l-23 -15 -4 73 c-2 58 -3 51 -5 -35z m96 -40 c31 -31 -5 -102 -47
-91 -33 8 -43 61 -19 91 13 15 50 16 66 0z"/>
<path d="M1168 1379 c-10 -5 -18 -14 -18 -20 0 -5 8 -4 19 2 10 7 26 9 35 6
23 -9 20 -44 -6 -59 l-23 -12 25 -6 c18 -4 26 -14 28 -33 3 -21 -2 -28 -24
-33 -15 -4 -35 -2 -46 5 -20 13 -25 2 -6 -17 33 -33 107 9 93 51 -4 12 -8 39
-9 60 -1 26 -8 43 -20 53 -23 16 -25 17 -48 3z"/>
<path d="M2190 1380 c0 -5 3 -9 8 -9 21 4 23 -3 8 -20 -10 -11 -15 -25 -11
-30 8 -14 45 -14 45 -1 0 6 -7 10 -16 10 -13 0 -14 3 -4 15 7 8 10 22 6 30 -6
17 -36 21 -36 5z"/>
<path d="M2620 1379 c0 -5 5 -7 10 -4 6 3 10 -1 10 -9 0 -8 -4 -18 -10 -21
-20 -12 -10 -35 15 -35 14 0 25 5 25 10 0 6 -7 10 -16 10 -13 0 -14 3 -4 15 7
8 10 22 6 30 -6 17 -36 21 -36 4z"/>
<path d="M3005 1380 c-3 -5 1 -10 9 -10 18 0 21 -16 6 -25 -18 -11 -11 -35 10
-35 11 0 20 5 20 10 0 6 -5 10 -10 10 -7 0 -7 6 -2 18 5 9 7 23 5 30 -6 14
-29 16 -38 2z"/>
<path d="M2075 1333 c-35 -34 -41 -95 -12 -130 15 -20 65 -16 79 6 11 18 12
18 28 -2 11 -13 23 -18 33 -14 24 9 21 26 -3 20 -20 -5 -21 -2 -34 76 -4 19
-11 40 -17 48 -16 18 -54 16 -74 -4z m56 -3 c31 -17 21 -98 -15 -122 -16 -11
-23 -10 -40 8 -23 22 -20 76 4 102 24 25 25 25 51 12z"/>
<path d="M2906 1335 c-56 -56 -7 -160 67 -141 40 10 32 26 -9 19 -29 -5 -40
-2 -50 12 -20 27 -17 79 5 99 18 16 20 16 36 0 16 -17 17 -17 13 2 -4 24 -41
30 -62 9z"/>
<path d="M2341 1308 c0 -9 -7 -18 -14 -20 -9 -2 -8 -8 5 -20 14 -14 18 -15 18
-4 0 8 8 17 18 19 15 4 15 5 0 6 -9 0 -19 9 -21 19 -4 15 -5 15 -6 0z"/>
<path d="M2748 1293 c12 -2 30 -2 40 0 9 3 -1 5 -23 4 -22 0 -30 -2 -17 -4z"/>
<path d="M3282 1278 c2 -15 10 -23 23 -23 30 0 27 39 -3 43 -20 3 -23 0 -20
-20z m28 2 c0 -5 -5 -10 -11 -10 -5 0 -7 5 -4 10 3 6 8 10 11 10 2 0 4 -4 4
-10z"/>
<path d="M3365 1168 c-48 -62 -92 -119 -98 -125 -6 -9 -6 -13 0 -13 12 0 197
239 190 246 -2 3 -44 -46 -92 -108z"/>
<path d="M2748 1253 c12 -2 30 -2 40 0 9 3 -1 5 -23 4 -22 0 -30 -2 -17 -4z"/>
<path d="M1120 1160 c47 -8 179 -4 188 5 3 3 -48 4 -114 4 -88 -1 -107 -3 -74
-9z"/>
<path d="M2229 1071 c-130 -36 -244 -72 -253 -80 -28 -24 -30 -17 98 -475 31
-109 61 -205 67 -212 6 -8 23 -14 38 -14 34 0 512 128 529 142 6 6 12 18 12
28 0 17 -149 580 -166 625 -12 35 -36 55 -63 54 -14 -1 -132 -31 -262 -68z
m309 12 c9 -22 72 -252 161 -589 5 -17 5 -37 1 -44 -7 -12 -487 -150 -521
-150 -9 0 -21 6 -27 13 -5 6 -50 155 -98 330 -80 289 -86 319 -72 333 9 9 87
36 174 60 366 103 360 102 382 47z"/>
<path d="M2242 1031 c-128 -36 -237 -72 -241 -79 -10 -17 19 -122 35 -129 10
-3 195 46 438 118 l68 20 -5 33 c-8 49 -34 106 -49 105 -7 -1 -118 -31 -246
-68z m274 -6 c9 -35 10 -51 2 -56 -6 -4 -94 -30 -197 -58 -102 -29 -205 -58
-228 -66 -32 -10 -44 -11 -51 -2 -14 18 -34 86 -29 100 4 14 430 136 466 133
21 -1 27 -9 37 -51z"/>
<path d="M2490 908 c-49 -13 -53 -20 -39 -67 12 -40 14 -42 43 -35 59 12 66
20 54 61 -13 49 -17 52 -58 41z m44 -30 c10 -39 7 -46 -25 -53 -35 -8 -49 4
-49 42 0 36 64 45 74 11z"/>
<path d="M2350 867 c-31 -11 -35 -16 -32 -42 6 -55 17 -65 59 -53 52 14 55 19
40 63 -16 46 -21 48 -67 32z m55 -38 c8 -36 9 -35 -32 -43 -29 -7 -32 -5 -38
25 -8 35 4 49 42 49 16 0 23 -8 28 -31z"/>
<path d="M2223 833 c-35 -7 -44 -25 -32 -67 11 -38 11 -38 52 -32 23 4 45 10
50 15 11 11 -18 86 -34 87 -8 1 -24 0 -36 -3z m51 -39 c8 -31 1 -40 -36 -49
-23 -6 -27 -3 -33 25 -8 36 4 50 41 50 15 0 24 -8 28 -26z"/>
<path d="M2083 789 c-38 -11 -37 -9 -21 -60 12 -42 24 -46 77 -28 22 8 30 16
27 28 -3 9 -8 28 -12 44 -7 29 -17 31 -71 16z m60 -44 c2 -22 -3 -30 -26 -37
-34 -12 -38 -9 -40 33 -2 27 2 34 23 39 31 9 40 1 43 -35z"/>
<path d="M2501 779 c-21 -8 -23 -14 -18 -46 9 -50 18 -56 66 -43 44 12 47 19
30 69 -12 33 -32 39 -78 20z m63 -15 c13 -33 6 -54 -20 -60 -28 -7 -38 0 -49
34 -5 17 -1 24 17 31 34 14 45 13 52 -5z"/>
<path d="M2388 748 c-41 -11 -46 -23 -27 -77 8 -22 16 -30 28 -27 9 3 28 8 44
12 16 4 27 13 27 24 0 23 -20 80 -28 79 -4 -1 -24 -6 -44 -11z m53 -42 c10
-36 9 -37 -32 -39 -27 -2 -33 2 -40 26 -6 23 -4 30 14 37 34 14 50 7 58 -24z"/>
<path d="M2262 709 c-40 -12 -47 -28 -32 -74 9 -26 16 -34 28 -31 10 3 29 8
45 12 16 4 27 13 27 24 0 23 -20 80 -28 79 -4 0 -22 -5 -40 -10z m49 -36 c11
-30 5 -39 -32 -48 -23 -6 -28 -2 -37 24 -9 26 -8 32 6 41 30 17 52 11 63 -17z"/>
<path d="M2121 669 c-32 -10 -33 -12 -26 -47 9 -49 17 -56 60 -48 43 8 51 23
35 71 -12 37 -16 39 -69 24z m62 -69 c-4 -4 -20 -10 -35 -14 -23 -5 -27 -2
-37 26 -6 17 -11 32 -11 34 0 2 15 7 33 12 30 8 33 7 45 -21 7 -16 10 -33 5
-37z"/>
<path d="M2563 639 c-18 -5 -35 -13 -38 -18 -3 -5 5 -46 17 -91 l22 -82 39 5
c22 3 44 10 49 15 17 17 -29 183 -49 181 -4 0 -22 -5 -40 -10z m62 -66 c9 -32
18 -65 21 -75 6 -19 0 -23 -41 -32 -30 -6 -30 -6 -51 69 -19 69 -19 77 -5 85
9 5 26 10 38 10 18 0 24 -10 38 -57z"/>
<path d="M2423 628 c-36 -12 -40 -26 -22 -77 9 -26 15 -30 33 -25 72 23 75 26
55 83 -12 33 -16 35 -66 19z m57 -34 c12 -32 8 -40 -26 -48 -31 -8 -39 -2 -48
36 -5 20 -2 28 11 31 40 10 54 6 63 -19z"/>
<path d="M2288 588 c-30 -10 -35 -29 -18 -73 9 -25 14 -27 48 -20 52 9 57 18
43 65 -13 43 -23 47 -73 28z m61 -29 c6 -18 11 -33 11 -35 0 -1 -14 -7 -32
-13 -35 -13 -43 -8 -52 31 -5 22 -2 28 22 36 39 15 39 15 51 -19z"/>
<path d="M2153 545 c-31 -13 -31 -14 -21 -54 11 -45 22 -49 77 -30 36 13 35
10 19 60 -12 43 -24 46 -75 24z m62 -26 c8 -34 2 -43 -32 -54 -19 -5 -25 -1
-33 20 -14 38 -13 42 18 53 39 15 40 15 47 -19z"/>
<path d="M2453 509 c-36 -10 -39 -20 -22 -69 11 -30 14 -32 47 -26 49 7 56 17
45 63 -10 41 -21 46 -70 32z m61 -42 c5 -23 3 -29 -19 -37 -38 -14 -42 -13
-53 19 -11 32 -3 45 33 53 25 6 31 0 39 -35z"/>
<path d="M2330 467 c-31 -11 -35 -16 -32 -42 6 -57 17 -65 65 -51 45 13 48 25
26 83 -10 26 -11 26 -59 10z m54 -29 c10 -39 7 -46 -25 -53 -35 -8 -49 4 -49
42 0 36 64 45 74 11z"/>
<path d="M2193 429 c-35 -10 -37 -16 -27 -69 7 -31 8 -32 47 -27 54 7 61 16
47 66 -11 43 -15 45 -67 30z m59 -48 c2 -20 -3 -26 -27 -32 -34 -10 -41 -5
-50 33 -6 24 -4 28 27 36 36 10 44 4 50 -37z"/>
<path d="M1157 1113 c-4 -3 -7 -24 -7 -46 0 -34 2 -38 15 -27 32 26 63 -38 33
-68 -16 -16 -50 -15 -67 1 -11 10 -13 9 -9 -2 8 -26 34 -36 63 -23 47 22 52
86 7 107 -12 5 -22 18 -22 27 0 14 8 18 36 18 21 0 33 4 29 10 -7 11 -68 14
-78 3z"/>
<path d="M3400 1061 c0 -27 19 -36 37 -18 18 18 9 37 -18 37 -12 0 -19 -7 -19
-19z m30 -1 c0 -5 -4 -10 -10 -10 -5 0 -10 5 -10 10 0 6 5 10 10 10 6 0 10 -4
10 -10z"/>
<path d="M2965 944 c-38 -30 -74 -59 -79 -64 -4 -4 19 -52 52 -106 34 -54 59
-101 56 -103 -3 -3 -8 -1 -12 4 -4 6 -22 23 -39 39 l-32 29 -41 -33 c-50 -39
-46 -53 4 -15 l36 27 60 -52 c34 -29 63 -50 67 -47 3 3 -27 59 -66 123 -39 64
-71 119 -71 123 0 3 32 30 70 60 39 29 70 57 70 62 0 13 3 14 -75 -47z"/>
<path d="M670 954 c0 -4 15 -33 33 -66 24 -44 49 -72 97 -107 36 -26 154 -114
264 -194 109 -81 204 -147 211 -147 17 0 62 46 68 70 3 10 0 25 -7 33 -6 8
-103 81 -216 162 -113 81 -227 164 -254 183 -52 38 -196 86 -196 66z m50 -23
c0 -17 -18 -21 -24 -6 -3 9 0 15 9 15 8 0 15 -4 15 -9z m68 -11 c19 0 14 -16
-14 -50 l-27 -31 -18 27 c-22 33 -7 68 26 60 11 -3 26 -6 33 -6z m265 -185
c120 -86 216 -160 213 -162 -6 -6 -7 -5 -261 180 -104 76 -192 143 -194 150
-3 9 -1 9 10 1 8 -6 112 -82 232 -169z m-165 87 c42 -32 141 -104 219 -161 79
-56 146 -107 149 -113 11 -17 -10 -3 -239 162 -191 137 -232 170 -211 170 3 0
40 -26 82 -58z m135 -132 c125 -91 222 -166 217 -168 -11 -4 -453 314 -459
330 -6 18 11 6 242 -162z m-20 -23 c120 -88 216 -162 213 -165 -3 -2 -56 33
-118 78 -62 46 -163 120 -225 164 -62 45 -112 85 -112 89 -1 12 4 9 242 -166z
m308 -117 c23 -13 24 -33 3 -65 -18 -27 -34 -31 -64 -15 -19 10 -18 12 8 50
31 45 28 43 53 30z"/>
<path d="M3036 858 c-27 -39 -20 -76 23 -119 21 -22 44 -39 50 -39 17 0 51 38
51 58 0 15 6 18 29 14 19 -3 30 1 34 12 7 17 -8 22 -18 6 -11 -18 -25 -10 -72
40 -50 55 -74 62 -97 28z m68 -19 c66 -78 31 -162 -37 -91 -31 32 -39 81 -17
107 18 21 25 19 54 -16z"/>
<path d="M2774 785 c-3 -8 4 -27 17 -42 15 -20 20 -22 14 -8 -15 40 -17 55 -7
55 5 0 15 -7 22 -15 7 -8 18 -15 25 -15 7 0 15 7 19 15 3 8 1 15 -4 15 -6 0
-10 -5 -10 -12 0 -6 -7 -4 -18 5 -23 21 -51 22 -58 2z"/>
<path d="M1573 578 c-26 -13 -48 -67 -33 -82 7 -7 10 -2 10 15 0 32 29 59 62
59 19 0 36 -12 58 -40 17 -22 43 -43 57 -46 27 -7 73 9 73 26 0 7 -6 8 -19 0
-38 -20 -64 -11 -107 35 -41 46 -61 52 -101 33z"/>
<path d="M1617 533 c-3 -10 -8 -36 -12 -57 -16 -98 -57 -146 -84 -99 -5 10
-13 15 -17 10 -11 -10 26 -47 47 -47 11 0 26 15 38 38 20 40 47 159 38 168 -3
3 -7 -3 -10 -13z"/>
<path d="M1656 489 c-10 -44 -26 -143 -26 -158 0 -9 3 -11 9 -5 10 11 35 174
27 181 -3 3 -7 -5 -10 -18z"/>
<path d="M1892 448 c6 -18 28 -21 28 -4 0 9 -7 16 -16 16 -9 0 -14 -5 -12 -12z"/>
<path d="M1863 373 c26 -2 67 -2 90 0 23 2 2 3 -48 3 -49 0 -68 -1 -42 -3z"/>
<path d="M1895 310 c-4 -6 -3 -16 3 -22 6 -6 12 -6 17 2 4 6 3 16 -3 22 -6 6
-12 6 -17 -2z"/>
</g>
</svg>
